<svg width="0" height="0" class="hidden">
    <symbol xmlns="http://www.w3.org/2000/svg" viewBox="0 0 32 32" id="codepen">
      <path d="M16 0C7.164 0 0 7.164 0 16s7.164 16 16 16 16-7.164
       16-16S24.843 0 16 0zm0 29.38c-7.376 0-13.373-5.997-13.373-13.373C2.627 
       8.63 8.624 2.634 16 2.634c7.376 0 13.373 5.997 13.373 13.373 
       0 7.375-5.997 13.373-13.373 13.373z">
       </path>
      <path d="M25.893 12.875c0-.014-.007-.027-.007-.034-.006-.027-.006-.048-.013-.068-.007-.014-.007-.027-.014-.041l-.02-.062a5.199 5.199 0 01-.02-.04c-.008-.021-.021-.041-.028-.055a.143.143 
      0 00-.027-.041c-.014-.02-.02-.034-.034-.055-.007-.013-.021-.027-.028-.034-.014-.013-.027-.034-.04-.047a10.98 
      10.98 0 01-.035-.035c-.014-.013-.034-.027-.048-.04-.013-.007-.027-.021-.04-.028-.007 0-.007-.007-.014-.014L16.478 6.25a.845.845 
      0 00-.942 0l-9.047 6.031c-.007 0-.007.007-.014.014-.014.007-.027.02-.041.027-.014.014-.034.028-.048.041l-.034.035a.24.24 0 00-.04.047.15.15 0 01-.028.034.148.148 0 00-.034.055.127.127 0 01-.028.04 19.47 19.47 0 01-.048.096l-.02.062c-.007.014-.007.027-.013.04a.242.242 0 00-.014.069c0 .014-.007.027-.007.034-.007.034-.007.075-.007.11v6.03c0 .035 0 .076.007.11 0 .014.007.027.007.034.007.027.007.048.014.068.006.014.006.028.013.041l.02.062c.008.013.014.027.021.04.007.021.02.042.027.055a.143.143 0 00.028.041l.034.055a.15.15 
      0 00.027.034c.014.014.027.034.041.048l.034.034c.014.013.034.027.048.04.014.008.027.021.04.028.008 0 .008.007.015.014l9.047 6.031a.848.848 0 00.941 0l9.041-6.024c.007 0 .007-.007.014-.014.013-.007.027-.02.04-.027.014-.014.035-.028.048-.041l.034-.034a.298.298 0 00.041-.048.147.147 0 01.028-.034.15.15 0 00.034-.055c.007-.014.013-.027.027-.04a.21.21 0 00.027-.055l.02-.041a.645.645 0 00.021-.062c.007-.013.007-.027.014-.04a.24.24 0 00.014-.069c0-.014.006-.027.006-.034.007-.034.007-.075.007-.11v-6.03c.007-.042 0-.076 0-.117zm-9.04-4.326l6.666 4.442-2.982 1.992-3.684-2.463V8.55zm-1.7 
      0v3.965l-3.684 2.463-2.974-1.993 6.659-4.435zm-7.34 6.032l2.128 1.426-2.129 1.426V14.58zm7.34 8.877l-6.665-4.442 2.975-1.992 3.684 2.463v3.97h.007zM16 18.013L12.99 16 16 13.987 19.009 16l-3.01 2.013zm.853 5.445v-3.964l3.684-2.464 2.975 1.993-6.66 4.435zm7.341-6.032L22.066 16l2.128-1.426v2.852z">
      </path>
    </symbol>

    <symbol  xmlns="http://www.w3.org/2000/svg" viewBox="0 0 67 67" id="facebook">
       <path d="M29.765,50.32h6.744V33.998h4.499l0.596-5.624h-5.095  
       l0.007-2.816c0-1.466,0.14-2.253,2.244-2.253h2.812V17.68h-4.5c-5.405,0-7.307,2.729-7.307,7.317v3.377h-3.369v5.625h3.369V50.32z   
       M34,64C17.432,64,4,50.568,4,34C4,17.431,17.432,4,34,4s30,13.431,30,30C64,50.568,50.568,64,34,64z" 
       />
    </symbol>

  <symbol xmlns="http://www.w3.org/2000/svg" viewBox="0 0 50 50" id="telegram">
  <path d="M 44.376953 5.9863281 C 43.889905 6.0076957 43.415817 6.1432497 42.988281 6.3144531 C 42.565113 6.4845113 40.128883 7.5243408 36.53125 9.0625 C 32.933617 10.600659 28.256963 12.603668 23.621094 14.589844 C 14.349356 18.562196 5.2382813 22.470703 5.2382812 22.470703 L 5.3046875 22.445312 C 5.3046875 22.445312 4.7547875 22.629122 4.1972656 23.017578 C 3.9185047 23.211806 3.6186028 23.462555 3.3730469 23.828125 C 3.127491 24.193695 2.9479735 24.711788 3.015625 25.259766 C 3.2532479 27.184511 5.2480469 27.730469 5.2480469 27.730469 L 5.2558594 27.734375 L 14.158203 30.78125 C 14.385177 31.538434 16.858319 39.792923 17.402344 41.541016 C 17.702797 42.507484 17.984013 43.064995 18.277344 43.445312 C 18.424133 43.635633 18.577962 43.782915 18.748047 43.890625 C 18.815627 43.933415 18.8867 43.965525 18.957031 43.994141 C 18.958531 43.994806 18.959437 43.99348 18.960938 43.994141 C 18.969579 43.997952 18.977708 43.998295 18.986328 44.001953 L 18.962891 43.996094 C 18.979231 44.002694 18.995359 44.013801 19.011719 44.019531 C 19.043456 44.030655 19.062905 44.030268 19.103516 44.039062 C 20.123059 44.395042 20.966797 43.734375 20.966797 43.734375 L 21.001953 43.707031 L 26.470703 38.634766 L 35.345703 45.554688 L 35.457031 45.605469 C 37.010484 46.295216 38.415349 45.910403 39.193359 45.277344 C 39.97137 44.644284 40.277344 43.828125 40.277344 43.828125 L 40.310547 43.742188 L 46.832031 9.7519531 C 46.998903 8.9915162 47.022612 8.334202 46.865234 7.7402344 C 46.707857 7.1462668 46.325492 6.6299361 45.845703 6.34375 C 45.365914 6.0575639 44.864001 5.9649605 44.376953 5.9863281 z M 44.429688 8.0195312 C 44.627491 8.0103707 44.774102 8.032983 44.820312 8.0605469 C 44.866523 8.0881109 44.887272 8.0844829 44.931641 8.2519531 C 44.976011 8.419423 45.000036 8.7721605 44.878906 9.3242188 L 44.875 9.3359375 L 38.390625 43.128906 C 38.375275 43.162926 38.240151 43.475531 37.931641 43.726562 C 37.616914 43.982653 37.266874 44.182554 36.337891 43.792969 L 26.632812 36.224609 L 26.359375 36.009766 L 26.353516 36.015625 L 23.451172 33.837891 L 39.761719 14.648438 A 1.0001 1.0001 0 0 0 38.974609 13 A 1.0001 1.0001 0 0 0 38.445312 13.167969 L 14.84375 28.902344 L 5.9277344 25.849609 C 5.9277344 25.849609 5.0423771 25.356927 5 25.013672 C 4.99765 24.994652 4.9871961 25.011869 5.0332031 24.943359 C 5.0792101 24.874869 5.1948546 24.759225 5.3398438 24.658203 C 5.6298218 24.456159 5.9609375 24.333984 5.9609375 24.333984 L 5.9941406 24.322266 L 6.0273438 24.308594 C 6.0273438 24.308594 15.138894 20.399882 24.410156 16.427734 C 29.045787 14.44166 33.721617 12.440122 37.318359 10.902344 C 40.914175 9.3649615 43.512419 8.2583658 43.732422 8.1699219 C 43.982886 8.0696253 44.231884 8.0286918 44.429688 8.0195312 z M 33.613281 18.792969 L 21.244141 33.345703 L 21.238281 33.351562 A 1.0001 1.0001 0 0 0 21.183594 33.423828 A 1.0001 1.0001 0 0 0 21.128906 33.507812 A 1.0001 1.0001 0 0 0 20.998047 33.892578 A 1.0001 1.0001 0 0 0 20.998047 33.900391 L 19.386719 41.146484 C 19.35993 41.068197 19.341173 41.039555 19.3125 40.947266 L 19.3125 40.945312 C 18.800713 39.30085 16.467362 31.5161 16.144531 30.439453 L 33.613281 18.792969 z M 22.640625 35.730469 L 24.863281 37.398438 L 21.597656 40.425781 L 22.640625 35.730469 z"/>
  </symbol>
</svg>